<svg version="1.1" id="Layer_1" xmlns="http://www.w3.org/2000/svg" xmlns:xlink="http://www.w3.org/1999/xlink" x="0px" y="0px"
	 width="100%" viewBox="0 0 795 401" enable-background="new 0 0 795 401" xml:space="preserve">
<path fill="#FEFEFE" opacity="1.000000" stroke="none" 
	d="
M527.000000,402.000000 
	C351.333344,402.000000 176.166672,402.000000 1.000000,402.000000 
	C1.000000,268.333344 1.000000,134.666672 1.000000,1.000000 
	C266.000000,1.000000 531.000000,1.000000 796.000000,1.000000 
	C796.000000,134.666672 796.000000,268.333344 796.000000,402.000000 
	C706.500000,402.000000 617.000000,402.000000 527.000000,402.000000 
M718.500122,96.444862 
	C657.389343,96.444862 596.278564,96.444862 534.785095,96.444862 
	C534.911072,99.022697 534.940125,100.999313 535.113647,102.963173 
	C537.825928,133.656372 540.542480,164.349182 543.286865,195.039520 
	C547.529358,242.483536 551.838257,289.921722 555.954468,337.376678 
	C556.247437,340.754181 557.238342,342.228455 560.558960,343.135681 
	C590.584839,351.338928 620.544983,359.782990 650.573914,367.974701 
	C653.129578,368.671844 656.204712,368.650269 658.766357,367.956940 
	C685.596924,360.694855 712.374695,353.237305 739.159668,345.807129 
	C743.648926,344.561798 749.725342,344.497894 752.130615,341.517334 
	C754.693359,338.341492 753.768127,332.350830 754.365723,327.589111 
	C754.386536,327.423767 754.413574,327.259003 754.428406,327.093140 
	C757.942200,287.778320 761.446594,248.462646 764.971313,209.148788 
	C767.529480,180.616058 770.128662,152.087006 772.678894,123.553566 
	C773.473389,114.664001 774.167603,105.765472 774.943176,96.445183 
	C756.113708,96.445183 737.806946,96.445183 718.500122,96.444862 
M292.117798,232.411240 
	C292.740875,239.210876 293.372223,246.009750 293.985565,252.810272 
	C296.543365,281.172363 299.150482,309.530304 301.574646,337.903809 
	C301.849640,341.122681 303.086914,342.321625 306.115540,343.148895 
	C334.854034,350.998596 363.575623,358.915161 392.219299,367.102234 
	C397.731873,368.677826 402.710052,368.643402 408.216064,367.071320 
	C436.863647,358.892090 465.596497,351.010559 494.325012,343.117554 
	C497.151947,342.340881 498.896698,341.467712 499.050964,337.995056 
	C499.375854,330.682800 500.271820,323.396332 500.916809,316.097839 
	C504.054199,280.596191 507.163086,245.091949 510.326508,209.592606 
	C513.534119,173.596771 516.798950,137.606049 520.012268,101.610725 
	C520.153198,100.031776 520.030334,98.429276 520.030334,96.802681 
	C439.887299,96.802681 360.164398,96.802681 280.094391,96.802681 
	C284.104126,141.955658 288.079620,186.723434 292.117798,232.411240 
M32.499462,165.005508 
	C37.639935,222.571594 42.810162,280.135101 47.840450,337.710785 
	C48.116455,340.869934 49.060158,342.249878 52.201221,343.106903 
	C82.391830,351.344391 112.518883,359.814819 142.710083,368.050049 
	C145.114487,368.705902 148.013641,368.660309 150.426941,368.002197 
	C180.619843,359.768646 210.750916,351.308411 240.944748,343.078400 
	C244.096863,342.219238 245.048340,340.801483 245.302612,337.660980 
	C246.821533,318.901978 248.582474,300.162537 250.264511,281.416779 
	C255.132034,227.169662 260.004669,172.923035 264.864075,118.675224 
	C265.511719,111.445503 266.094604,104.209984 266.730103,96.710190 
	C186.436752,96.710190 106.692261,96.710190 26.429251,96.710190 
	C28.427128,119.385475 30.396770,141.740311 32.499462,165.005508 
M182.742950,57.013504 
	C183.298706,56.356289 183.854462,55.699078 185.288452,54.003281 
	C185.288452,62.063114 185.288452,68.773346 185.288452,75.468079 
	C190.549057,75.468079 195.287949,75.468079 200.080444,75.468079 
	C200.080444,60.138985 200.080444,45.104942 200.080444,29.834894 
	C196.070221,29.834894 192.400253,30.048573 188.767868,29.770781 
	C185.564056,29.525761 183.576569,30.460152 182.042023,33.432659 
	C179.937347,37.509586 177.291473,41.307125 174.628906,45.627865 
	C171.693161,40.837982 169.203903,36.512878 166.413086,32.391987 
	C165.627792,31.232454 164.000565,30.041683 162.685455,29.952068 
	C158.252823,29.650019 153.786880,29.837093 149.208664,29.837093 
	C149.208664,45.291378 149.208664,60.341042 149.208664,75.393913 
	C154.223175,75.393913 158.944138,75.393913 164.200409,75.393913 
	C164.200409,68.365959 164.200409,61.694672 164.200409,53.933147 
	C168.029190,59.694317 171.172134,64.423500 174.593872,69.572205 
	C177.435471,65.163445 179.861923,61.398796 182.742950,57.013504 
M379.209991,46.876469 
	C384.788818,51.234215 390.367676,55.591961 396.996063,60.769535 
	C390.134735,60.769535 384.587616,60.769535 378.882629,60.769535 
	C378.882629,65.998009 378.882629,70.753914 378.882629,75.552765 
	C393.125305,75.552765 407.066620,75.552765 421.600128,75.552765 
	C421.600128,72.733948 421.305389,70.076057 421.664429,67.509644 
	C422.315796,62.853500 420.698395,59.722538 416.772980,57.102535 
	C412.451385,54.218086 408.562042,50.686035 404.484375,47.436108 
	C404.603668,47.068317 404.722992,46.700531 404.842285,46.332741 
	C410.364288,46.332741 415.886322,46.332741 421.384186,46.332741 
	C421.384186,40.553894 421.384186,35.432224 421.384186,30.072639 
	C407.097534,30.072639 393.027557,30.072639 378.789856,30.072639 
	C378.789856,35.607929 378.789856,40.907688 379.209991,46.876469 
M694.880127,56.655773 
	C691.062866,53.603481 687.245544,50.551193 683.428284,47.498905 
	C683.525269,47.135410 683.622253,46.771919 683.719238,46.408424 
	C689.194336,46.408424 694.669495,46.408424 699.983154,46.408424 
	C699.983154,40.484116 699.983154,35.270081 699.983154,30.231133 
	C685.602051,30.231133 671.575378,30.231133 657.329468,30.231133 
	C657.329468,33.605038 657.630981,36.619556 657.262268,39.549725 
	C656.630493,44.570049 658.419373,47.921021 662.698120,50.645424 
	C667.015442,53.394379 670.879150,56.855698 674.941589,60.004917 
	C674.754944,60.367897 674.568298,60.730881 674.381653,61.093864 
	C668.819946,61.093864 663.258179,61.093864 657.591064,61.093864 
	C657.591064,66.096085 657.591064,70.675255 657.591064,75.507294 
	C671.877380,75.507294 685.901001,75.507294 699.894043,75.507294 
	C701.490845,62.930283 701.155823,61.564388 694.880127,56.655773 
M457.147736,50.127113 
	C455.982544,49.194656 454.817352,48.262196 453.652191,47.329739 
	C453.837891,46.985344 454.023621,46.640945 454.209320,46.296547 
	C459.665466,46.296547 465.121613,46.296547 470.665527,46.296547 
	C470.665527,40.657978 470.665527,35.416279 470.665527,30.137455 
	C456.331970,30.137455 442.267365,30.137455 427.931885,30.137455 
	C427.931885,34.242855 428.158447,38.064499 427.864227,41.845615 
	C427.602234,45.212563 428.752838,47.361153 431.517700,49.290764 
	C436.321991,52.643726 440.843201,56.402283 445.483093,59.990780 
	C445.336914,60.317200 445.190735,60.643620 445.044556,60.970039 
	C439.478699,60.970039 433.912811,60.970039 428.318817,60.970039 
	C428.318817,66.098793 428.318817,70.792877 428.318817,75.493103 
	C442.631989,75.493103 456.555878,75.493103 470.438019,75.493103 
	C472.297180,62.446190 472.070465,61.854668 462.454102,54.306774 
	C460.881683,53.072598 459.308044,51.839989 457.147736,50.127113 
M93.429901,37.613018 
	C93.429901,35.141884 93.429901,32.670746 93.429901,30.098518 
	C88.086716,30.098518 83.176552,30.098518 77.849930,30.098518 
	C77.849930,35.098545 77.849930,39.854736 77.849930,44.549484 
	C73.053635,44.549484 68.688179,44.549484 63.879845,44.549484 
	C63.879845,39.406208 63.879845,34.667564 63.879845,30.092167 
	C58.644291,30.092167 53.869133,30.092167 49.122509,30.092167 
	C49.122509,45.388241 49.122509,60.430058 49.122509,75.494217 
	C54.242439,75.494217 58.999130,75.494217 64.183243,75.494217 
	C64.183243,70.480843 64.183243,65.714294 64.183243,60.810379 
	C68.983887,60.810379 73.349579,60.810379 78.118004,60.810379 
	C78.118004,65.897461 78.118004,70.657097 78.118004,75.572784 
	C83.299988,75.572784 88.073273,75.572784 93.429855,75.572784 
	C93.429855,63.160271 93.429855,50.871906 93.429901,37.613018 
M352.499390,75.756744 
	C358.925323,75.756744 365.351257,75.756744 371.761230,75.756744 
	C371.761230,70.496773 371.761230,65.893990 371.761230,60.798428 
	C363.827850,60.798428 356.107727,60.798428 348.290283,60.798428 
	C348.290283,55.733295 348.290283,51.170017 348.290283,46.102497 
	C356.265564,46.102497 363.981506,46.102497 371.660645,46.102497 
	C371.660645,40.364159 371.660645,35.140556 371.660645,30.028786 
	C357.554504,30.028786 343.775543,30.028786 329.858459,30.028786 
	C329.858459,45.289837 329.858459,60.357880 329.858459,75.756744 
	C337.252716,75.756744 344.376282,75.756744 352.499390,75.756744 
M625.501770,75.767929 
	C633.737671,75.767929 641.973633,75.767929 650.290527,75.767929 
	C650.290527,60.093868 650.290527,45.163944 650.290527,30.162138 
	C644.175598,30.162138 638.292542,30.162138 631.925537,30.162138 
	C631.925537,40.051842 631.925537,49.615879 631.925537,59.629745 
	C623.697693,59.629745 615.956543,59.629745 608.322876,59.629745 
	C608.322876,65.195740 608.322876,70.283302 608.322876,75.767921 
	C613.911865,75.767921 619.207336,75.767921 625.501770,75.767929 
M113.349953,65.452789 
	C113.349953,68.735367 113.349953,72.017944 113.349953,75.420593 
	C118.767799,75.420593 123.635414,75.420593 128.949814,75.420593 
	C128.949814,65.193695 128.949814,55.305832 128.949814,44.935879 
	C133.620270,44.935879 137.848816,44.935879 141.970566,44.935879 
	C141.970566,39.687332 141.970566,34.934570 141.970566,30.127728 
	C127.869331,30.127728 114.017792,30.127728 100.123169,30.127728 
	C100.123169,35.177917 100.123169,39.928135 100.123169,45.134750 
	C104.551163,45.134750 108.789978,45.134750 113.349968,45.134750 
	C113.349968,51.883167 113.349968,58.174343 113.349953,65.452789 
M207.951477,51.500088 
	C207.951477,59.441547 207.951477,67.383003 207.951477,75.435455 
	C220.521042,75.435455 232.567841,75.435455 244.653687,75.435455 
	C244.653687,70.357132 244.653687,65.615898 244.653687,60.351791 
	C237.469849,60.351791 230.544052,60.351791 223.203400,60.351791 
	C223.203400,49.924145 223.203400,40.019760 223.203400,30.190617 
	C217.868896,30.190617 212.978531,30.190617 207.951477,30.190617 
	C207.951477,37.202557 207.951477,43.851349 207.951477,51.500088 
z"/>
<path fill="#64A916" opacity="1.000000" stroke="none" 
	d="
M719.000122,96.445023 
	C737.806946,96.445183 756.113708,96.445183 774.943176,96.445183 
	C774.167603,105.765472 773.473389,114.664001 772.678894,123.553566 
	C770.128662,152.087006 767.529480,180.616058 764.971313,209.148788 
	C761.446594,248.462646 757.942200,287.778320 754.428406,327.093140 
	C754.413574,327.259003 754.386536,327.423767 754.365723,327.589111 
	C753.768127,332.350830 754.693359,338.341492 752.130615,341.517334 
	C749.725342,344.497894 743.648926,344.561798 739.159668,345.807129 
	C712.374695,353.237305 685.596924,360.694855 658.766357,367.956940 
	C656.204712,368.650269 653.129578,368.671844 650.573914,367.974701 
	C620.544983,359.782990 590.584839,351.338928 560.558960,343.135681 
	C557.238342,342.228455 556.247437,340.754181 555.954468,337.376678 
	C551.838257,289.921722 547.529358,242.483536 543.286865,195.039520 
	C540.542480,164.349182 537.825928,133.656372 535.113647,102.963173 
	C534.940125,100.999313 534.911072,99.022697 534.785095,96.444862 
	C596.278564,96.444862 657.389343,96.444862 719.000122,96.445023 
M654.457031,317.134094 
	C654.619812,317.196655 654.782532,317.259216 654.956055,318.218658 
	C654.956055,327.964844 654.956055,337.711060 654.956055,347.878296 
	C656.558899,347.502014 657.347656,347.342377 658.122375,347.131287 
	C682.759399,340.419647 707.409058,333.752716 731.991516,326.846924 
	C733.278870,326.485229 734.681274,324.164154 734.854553,322.623108 
	C735.539368,316.533752 735.620544,310.379456 736.172668,304.271606 
	C737.364197,291.090240 738.798523,277.930664 739.964233,264.747192 
	C741.116516,251.715271 741.944519,238.654419 743.124817,225.625275 
	C744.632324,208.982910 746.390381,192.363419 747.965698,175.726974 
	C749.338440,161.228745 750.657837,146.724976 751.895630,132.214661 
	C752.339722,127.008881 752.476318,121.776871 752.750977,116.600159 
	C751.838440,116.325249 751.373779,116.063179 750.908936,116.062653 
	C720.091736,116.028214 689.274475,116.044998 658.457458,115.953064 
	C655.378967,115.943878 654.922607,117.424736 654.945923,119.969963 
	C655.025391,128.631424 654.968689,137.294113 654.508057,146.183075 
	C654.356750,146.260010 654.205505,146.336929 653.127258,146.224991 
	C628.538757,146.224991 603.950256,146.224991 578.908875,146.224991 
	C579.665161,156.484802 580.379578,166.175720 581.101990,175.975082 
	C605.784241,175.975082 629.892700,175.975082 654.461609,176.203003 
	C654.616394,176.276443 654.771118,176.349899 654.946655,177.304382 
	C654.955627,213.201263 654.964600,249.098145 654.539795,285.289093 
	C654.379089,285.357666 654.218445,285.426208 653.312134,285.158661 
	C643.835144,282.663300 634.380615,280.077087 624.867981,277.725983 
	C621.878967,276.987244 620.409485,275.653625 620.269714,272.432617 
	C620.032288,266.958252 619.543579,261.483154 618.842651,256.049408 
	C618.684998,254.826965 617.244507,252.814041 616.351013,252.790146 
	C607.281189,252.547455 598.202393,252.641953 588.594299,252.641953 
	C589.792419,268.252136 590.883057,283.130615 592.185486,297.990540 
	C592.276184,299.025604 593.780457,300.492584 594.892273,300.799774 
	C614.576599,306.237976 634.302063,311.527283 654.457031,317.134094 
z"/>
<path fill="#0271BB" opacity="1.000000" stroke="none" 
	d="
M292.086487,231.951233 
	C288.079620,186.723434 284.104126,141.955658 280.094391,96.802681 
	C360.164398,96.802681 439.887299,96.802681 520.030334,96.802681 
	C520.030334,98.429276 520.153198,100.031776 520.012268,101.610725 
	C516.798950,137.606049 513.534119,173.596771 510.326508,209.592606 
	C507.163086,245.091949 504.054199,280.596191 500.916809,316.097839 
	C500.271820,323.396332 499.375854,330.682800 499.050964,337.995056 
	C498.896698,341.467712 497.151947,342.340881 494.325012,343.117554 
	C465.596497,351.010559 436.863647,358.892090 408.216064,367.071320 
	C402.710052,368.643402 397.731873,368.677826 392.219299,367.102234 
	C363.575623,358.915161 334.854034,350.998596 306.115540,343.148895 
	C303.086914,342.321625 301.849640,341.122681 301.574646,337.903809 
	C299.150482,309.530304 296.543365,281.172363 293.985565,252.810272 
	C293.372223,246.009750 292.740875,239.210876 292.086487,231.951233 
M399.071533,207.240585 
	C376.169861,207.240585 353.268219,207.240585 329.979889,207.240585 
	C330.968536,217.958786 331.874969,227.786072 332.798157,237.794785 
	C335.731903,237.794785 337.888000,237.787857 340.044006,237.795837 
	C360.032013,237.869843 380.020020,237.946442 400.022644,238.956329 
	C400.025482,254.205841 400.028320,269.455353 399.268799,284.802948 
	C389.461700,282.185730 379.673401,279.494354 369.835449,276.998840 
	C367.069855,276.297302 365.679413,275.170685 365.507202,272.063660 
	C365.132690,265.307556 364.311066,258.576233 363.664490,251.753784 
	C353.186035,251.753784 343.153259,251.753784 332.667938,251.753784 
	C334.012665,266.591522 335.442810,280.985016 336.532562,295.404266 
	C336.793304,298.854645 338.132874,300.137604 341.339203,301.004089 
	C360.937927,306.300659 380.474884,311.825928 400.011627,318.177521 
	C400.011627,327.955963 400.011627,337.734406 400.011627,347.874207 
	C401.636230,347.615021 402.599365,347.553833 403.510071,347.302612 
	C427.979523,340.552399 452.457336,333.831085 476.870941,326.884247 
	C478.198364,326.506500 479.723755,324.301331 479.895538,322.802307 
	C480.875946,314.245483 481.426270,305.640472 482.212311,297.060059 
	C483.435852,283.704224 484.783722,270.359680 485.980927,257.001556 
	C487.105042,244.459183 488.067657,231.902435 489.164124,219.357483 
	C490.418671,205.004181 491.699921,190.652908 493.052002,176.308533 
	C493.875153,167.575317 494.948273,158.865326 495.737152,150.129379 
	C496.601746,140.554901 497.234161,130.959686 498.041382,121.379723 
	C498.295868,118.359993 497.592163,116.847839 494.046509,116.861443 
	C464.069305,116.976532 434.091309,116.973831 404.114105,116.862411 
	C400.668976,116.849609 399.921600,118.208694 399.977539,121.301186 
	C400.131134,129.792023 400.032074,138.287399 399.105316,146.955994 
	C374.512085,146.955994 349.918884,146.955994 325.061188,146.955994 
	C325.996338,157.309479 326.861847,166.891541 327.782867,177.088562 
	C352.103302,177.088562 376.063141,177.088562 400.034393,178.013855 
	C400.020721,187.694824 400.007050,197.375793 399.071533,207.240585 
z"/>
<path fill="#E44F28" opacity="1.000000" stroke="none" 
	d="
M32.432938,164.550323 
	C30.396770,141.740311 28.427128,119.385475 26.429251,96.710190 
	C106.692261,96.710190 186.436752,96.710190 266.730103,96.710190 
	C266.094604,104.209984 265.511719,111.445503 264.864075,118.675224 
	C260.004669,172.923035 255.132034,227.169662 250.264511,281.416779 
	C248.582474,300.162537 246.821533,318.901978 245.302612,337.660980 
	C245.048340,340.801483 244.096863,342.219238 240.944748,343.078400 
	C210.750916,351.308411 180.619843,359.768646 150.426941,368.002197 
	C148.013641,368.660309 145.114487,368.705902 142.710083,368.050049 
	C112.518883,359.814819 82.391830,351.344391 52.201221,343.106903 
	C49.060158,342.249878 48.116455,340.869934 47.840450,337.710785 
	C42.810162,280.135101 37.639935,222.571594 32.432938,164.550323 
M146.489044,317.031525 
	C146.652893,317.096130 146.816757,317.160767 146.983032,318.134430 
	C146.983032,327.895447 146.983032,337.656433 146.983032,347.713898 
	C149.148270,347.336487 150.631439,347.203003 152.043808,346.813110 
	C173.929916,340.771118 195.826202,334.764496 217.676697,328.595825 
	C226.963455,325.974121 226.668930,325.802246 227.072006,315.966858 
	C227.437668,307.044403 228.346619,298.140198 229.157715,289.240875 
	C230.372879,275.908020 231.770264,262.591675 232.977921,249.258133 
	C233.783981,240.358459 234.276825,231.429947 235.118912,222.534119 
	C236.660965,206.243973 238.409439,189.973450 239.974457,173.685379 
	C241.366074,159.202057 242.662308,144.709229 243.921112,130.213699 
	C244.286896,126.001602 244.379272,121.765739 244.596725,117.545410 
	C243.827042,117.315239 243.362411,117.055046 242.897507,117.054558 
	C212.081802,117.022217 181.265976,117.040611 150.450485,116.951866 
	C147.345810,116.942932 146.943588,118.485611 146.965515,121.001213 
	C147.039627,129.495743 146.987289,137.991379 146.491379,146.735489 
	C146.326950,146.817429 146.162537,146.899368 145.076157,146.795593 
	C120.511955,146.795593 95.947754,146.795593 71.096779,146.795593 
	C73.768150,176.695389 76.342758,205.844040 79.098122,234.975616 
	C79.194809,235.997803 81.086693,237.658676 82.146133,237.661987 
	C103.444725,237.728729 124.743950,237.595642 146.514496,237.764847 
	C146.672501,237.850647 146.830490,237.936432 146.990555,238.956482 
	C146.996155,254.348465 147.001740,269.740448 146.593246,285.538544 
	C146.424545,285.633026 146.255859,285.727509 145.377136,285.347504 
	C135.908386,282.809937 126.457359,280.202911 116.959763,277.778320 
	C114.215256,277.077698 112.838028,275.980225 112.681877,272.842926 
	C112.353905,266.253632 111.501213,259.690399 110.847054,252.942444 
	C100.719894,252.942444 91.009323,252.942444 80.571144,252.942444 
	C81.973518,268.299744 83.301003,283.307159 84.818504,298.295349 
	C84.910255,299.201447 86.385323,300.418518 87.433762,300.709778 
	C106.947403,306.131805 126.494019,311.435150 146.489044,317.031525 
z"/>
<path fill="#040404" opacity="1.000000" stroke="none" 
	d="
M182.515656,57.323830 
	C179.861923,61.398796 177.435471,65.163445 174.593872,69.572205 
	C171.172134,64.423500 168.029190,59.694317 164.200409,53.933147 
	C164.200409,61.694672 164.200409,68.365959 164.200409,75.393913 
	C158.944138,75.393913 154.223175,75.393913 149.208664,75.393913 
	C149.208664,60.341042 149.208664,45.291378 149.208664,29.837093 
	C153.786880,29.837093 158.252823,29.650019 162.685455,29.952068 
	C164.000565,30.041683 165.627792,31.232454 166.413086,32.391987 
	C169.203903,36.512878 171.693161,40.837982 174.628906,45.627865 
	C177.291473,41.307125 179.937347,37.509586 182.042023,33.432659 
	C183.576569,30.460152 185.564056,29.525761 188.767868,29.770781 
	C192.400253,30.048573 196.070221,29.834894 200.080444,29.834894 
	C200.080444,45.104942 200.080444,60.138985 200.080444,75.468079 
	C195.287949,75.468079 190.549057,75.468079 185.288452,75.468079 
	C185.288452,68.773346 185.288452,62.063114 185.288452,54.003281 
	C183.854462,55.699078 183.298706,56.356289 182.515656,57.323830 
z"/>
<path fill="#050505" opacity="1.000000" stroke="none" 
	d="
M378.999939,46.541958 
	C378.789856,40.907688 378.789856,35.607929 378.789856,30.072639 
	C393.027557,30.072639 407.097534,30.072639 421.384186,30.072639 
	C421.384186,35.432224 421.384186,40.553894 421.384186,46.332741 
	C415.886322,46.332741 410.364288,46.332741 404.842285,46.332741 
	C404.722992,46.700531 404.603668,47.068317 404.484375,47.436108 
	C408.562042,50.686035 412.451385,54.218086 416.772980,57.102535 
	C420.698395,59.722538 422.315796,62.853500 421.664429,67.509644 
	C421.305389,70.076057 421.600128,72.733948 421.600128,75.552765 
	C407.066620,75.552765 393.125305,75.552765 378.882629,75.552765 
	C378.882629,70.753914 378.882629,65.998009 378.882629,60.769535 
	C384.587616,60.769535 390.134735,60.769535 396.996063,60.769535 
	C390.367676,55.591961 384.788818,51.234215 378.999939,46.541958 
z"/>
<path fill="#050505" opacity="1.000000" stroke="none" 
	d="
M695.171753,56.866314 
	C701.155823,61.564388 701.490845,62.930283 699.894043,75.507294 
	C685.901001,75.507294 671.877380,75.507294 657.591064,75.507294 
	C657.591064,70.675255 657.591064,66.096085 657.591064,61.093864 
	C663.258179,61.093864 668.819946,61.093864 674.381653,61.093864 
	C674.568298,60.730881 674.754944,60.367897 674.941589,60.004917 
	C670.879150,56.855698 667.015442,53.394379 662.698120,50.645424 
	C658.419373,47.921021 656.630493,44.570049 657.262268,39.549725 
	C657.630981,36.619556 657.329468,33.605038 657.329468,30.231133 
	C671.575378,30.231133 685.602051,30.231133 699.983154,30.231133 
	C699.983154,35.270081 699.983154,40.484116 699.983154,46.408424 
	C694.669495,46.408424 689.194336,46.408424 683.719238,46.408424 
	C683.622253,46.771919 683.525269,47.135410 683.428284,47.498905 
	C687.245544,50.551193 691.062866,53.603481 695.171753,56.866314 
z"/>
<path fill="#050505" opacity="1.000000" stroke="none" 
	d="
M457.441345,50.366882 
	C459.308044,51.839989 460.881683,53.072598 462.454102,54.306774 
	C472.070465,61.854668 472.297180,62.446190 470.438019,75.493103 
	C456.555878,75.493103 442.631989,75.493103 428.318817,75.493103 
	C428.318817,70.792877 428.318817,66.098793 428.318817,60.970039 
	C433.912811,60.970039 439.478699,60.970039 445.044556,60.970039 
	C445.190735,60.643620 445.336914,60.317200 445.483093,59.990780 
	C440.843201,56.402283 436.321991,52.643726 431.517700,49.290764 
	C428.752838,47.361153 427.602234,45.212563 427.864227,41.845615 
	C428.158447,38.064499 427.931885,34.242855 427.931885,30.137455 
	C442.267365,30.137455 456.331970,30.137455 470.665527,30.137455 
	C470.665527,35.416279 470.665527,40.657978 470.665527,46.296547 
	C465.121613,46.296547 459.665466,46.296547 454.209320,46.296547 
	C454.023621,46.640945 453.837891,46.985344 453.652191,47.329739 
	C454.817352,48.262196 455.982544,49.194656 457.441345,50.366882 
z"/>
<path fill="#020202" opacity="1.000000" stroke="none" 
	d="
M93.429878,38.098282 
	C93.429855,50.871906 93.429855,63.160271 93.429855,75.572784 
	C88.073273,75.572784 83.299988,75.572784 78.118004,75.572784 
	C78.118004,70.657097 78.118004,65.897461 78.118004,60.810379 
	C73.349579,60.810379 68.983887,60.810379 64.183243,60.810379 
	C64.183243,65.714294 64.183243,70.480843 64.183243,75.494217 
	C58.999130,75.494217 54.242439,75.494217 49.122509,75.494217 
	C49.122509,60.430058 49.122509,45.388241 49.122509,30.092167 
	C53.869133,30.092167 58.644291,30.092167 63.879845,30.092167 
	C63.879845,34.667564 63.879845,39.406208 63.879845,44.549484 
	C68.688179,44.549484 73.053635,44.549484 77.849930,44.549484 
	C77.849930,39.854736 77.849930,35.098545 77.849930,30.098518 
	C83.176552,30.098518 88.086716,30.098518 93.429901,30.098518 
	C93.429901,32.670746 93.429901,35.141884 93.429878,38.098282 
z"/>
<path fill="#030303" opacity="1.000000" stroke="none" 
	d="
M351.999603,75.756744 
	C344.376282,75.756744 337.252716,75.756744 329.858459,75.756744 
	C329.858459,60.357880 329.858459,45.289837 329.858459,30.028786 
	C343.775543,30.028786 357.554504,30.028786 371.660645,30.028786 
	C371.660645,35.140556 371.660645,40.364159 371.660645,46.102497 
	C363.981506,46.102497 356.265564,46.102497 348.290283,46.102497 
	C348.290283,51.170017 348.290283,55.733295 348.290283,60.798428 
	C356.107727,60.798428 363.827850,60.798428 371.761230,60.798428 
	C371.761230,65.893990 371.761230,70.496773 371.761230,75.756744 
	C365.351257,75.756744 358.925323,75.756744 351.999603,75.756744 
z"/>
<path fill="#070707" opacity="1.000000" stroke="none" 
	d="
M625.002319,75.767929 
	C619.207336,75.767921 613.911865,75.767921 608.322876,75.767921 
	C608.322876,70.283302 608.322876,65.195740 608.322876,59.629745 
	C615.956543,59.629745 623.697693,59.629745 631.925537,59.629745 
	C631.925537,49.615879 631.925537,40.051842 631.925537,30.162138 
	C638.292542,30.162138 644.175598,30.162138 650.290527,30.162138 
	C650.290527,45.163944 650.290527,60.093868 650.290527,75.767929 
	C641.973633,75.767929 633.737671,75.767929 625.002319,75.767929 
z"/>
<path fill="#060606" opacity="1.000000" stroke="none" 
	d="
M113.349960,64.959152 
	C113.349968,58.174343 113.349968,51.883167 113.349968,45.134750 
	C108.789978,45.134750 104.551163,45.134750 100.123169,45.134750 
	C100.123169,39.928135 100.123169,35.177917 100.123169,30.127728 
	C114.017792,30.127728 127.869331,30.127728 141.970566,30.127728 
	C141.970566,34.934570 141.970566,39.687332 141.970566,44.935879 
	C137.848816,44.935879 133.620270,44.935879 128.949814,44.935879 
	C128.949814,55.305832 128.949814,65.193695 128.949814,75.420593 
	C123.635414,75.420593 118.767799,75.420593 113.349953,75.420593 
	C113.349953,72.017944 113.349953,68.735367 113.349960,64.959152 
z"/>
<path fill="#070707" opacity="1.000000" stroke="none" 
	d="
M207.951477,51.000114 
	C207.951477,43.851349 207.951477,37.202557 207.951477,30.190617 
	C212.978531,30.190617 217.868896,30.190617 223.203400,30.190617 
	C223.203400,40.019760 223.203400,49.924145 223.203400,60.351791 
	C230.544052,60.351791 237.469849,60.351791 244.653687,60.351791 
	C244.653687,65.615898 244.653687,70.357132 244.653687,75.435455 
	C232.567841,75.435455 220.521042,75.435455 207.951477,75.435455 
	C207.951477,67.383003 207.951477,59.441547 207.951477,51.000114 
z"/>
<path fill="#8ACF18" opacity="1.000000" stroke="none" 
	d="
M654.963989,145.956345 
	C654.968689,137.294113 655.025391,128.631424 654.945923,119.969963 
	C654.922607,117.424736 655.378967,115.943878 658.457458,115.953064 
	C689.274475,116.044998 720.091736,116.028214 750.908936,116.062653 
	C751.373779,116.063179 751.838440,116.325249 752.750977,116.600159 
	C752.476318,121.776871 752.339722,127.008881 751.895630,132.214661 
	C750.657837,146.724976 749.338440,161.228745 747.965698,175.726974 
	C746.390381,192.363419 744.632324,208.982910 743.124817,225.625275 
	C741.944519,238.654419 741.116516,251.715271 739.964233,264.747192 
	C738.798523,277.930664 737.364197,291.090240 736.172668,304.271606 
	C735.620544,310.379456 735.539368,316.533752 734.854553,322.623108 
	C734.681274,324.164154 733.278870,326.485229 731.991516,326.846924 
	C707.409058,333.752716 682.759399,340.419647 658.122375,347.131287 
	C657.347656,347.342377 656.558899,347.502014 654.956055,347.878296 
	C654.956055,337.711060 654.956055,327.964844 655.307861,317.597198 
	C674.239319,311.830658 692.796448,306.601318 711.418518,301.614441 
	C714.969971,300.663361 716.508057,299.183014 716.844421,295.325470 
	C720.729431,250.765167 724.818848,206.222717 728.829529,161.673325 
	C729.282593,156.640839 729.585938,151.594879 729.986633,146.178024 
	C727.284973,146.178024 725.308716,146.183487 723.332458,146.177200 
	C700.542969,146.104630 677.753479,146.030243 654.963989,145.956345 
z"/>
<path fill="#FEFFFD" opacity="1.000000" stroke="none" 
	d="
M654.736023,146.069702 
	C677.753479,146.030243 700.542969,146.104630 723.332458,146.177200 
	C725.308716,146.183487 727.284973,146.178024 729.986633,146.178024 
	C729.585938,151.594879 729.282593,156.640839 728.829529,161.673325 
	C724.818848,206.222717 720.729431,250.765167 716.844421,295.325470 
	C716.508057,299.183014 714.969971,300.663361 711.418518,301.614441 
	C692.796448,306.601318 674.239319,311.830658 655.302490,317.148743 
	C654.782532,317.259216 654.619812,317.196655 654.235535,316.533142 
	C654.028625,305.786407 654.043152,295.640594 654.057739,285.494781 
	C654.218445,285.426208 654.379089,285.357666 655.157410,285.171021 
	C665.246460,282.530914 674.700928,279.941711 684.200562,277.530792 
	C686.800171,276.871063 687.913879,275.803467 688.176514,272.893097 
	C690.297607,249.384705 692.662537,225.898361 694.924377,202.402527 
	C695.747192,193.854996 696.491760,185.299942 697.301697,176.423340 
	C682.770508,176.423340 668.848145,176.423340 654.925781,176.423340 
	C654.771118,176.349899 654.616394,176.276443 654.229614,175.622131 
	C654.016479,165.498779 654.035339,155.956314 654.054199,146.413834 
	C654.205505,146.336929 654.356750,146.260010 654.736023,146.069702 
z"/>
<path fill="#8BCF1A" opacity="1.000000" stroke="none" 
	d="
M654.936218,176.863861 
	C668.848145,176.423340 682.770508,176.423340 697.301697,176.423340 
	C696.491760,185.299942 695.747192,193.854996 694.924377,202.402527 
	C692.662537,225.898361 690.297607,249.384705 688.176514,272.893097 
	C687.913879,275.803467 686.800171,276.871063 684.200562,277.530792 
	C674.700928,279.941711 665.246460,282.530914 655.374329,285.023987 
	C654.964600,249.098145 654.955627,213.201263 654.936218,176.863861 
z"/>
<path fill="#EAEAE9" opacity="1.000000" stroke="none" 
	d="
M653.684937,285.326721 
	C654.043152,295.640594 654.028625,305.786407 654.016357,316.390472 
	C634.302063,311.527283 614.576599,306.237976 594.892273,300.799774 
	C593.780457,300.492584 592.276184,299.025604 592.185486,297.990540 
	C590.883057,283.130615 589.792419,268.252136 588.594299,252.641953 
	C598.202393,252.641953 607.281189,252.547455 616.351013,252.790146 
	C617.244507,252.814041 618.684998,254.826965 618.842651,256.049408 
	C619.543579,261.483154 620.032288,266.958252 620.269714,272.432617 
	C620.409485,275.653625 621.878967,276.987244 624.867981,277.725983 
	C634.380615,280.077087 643.835144,282.663300 653.684937,285.326721 
z"/>
<path fill="#E9EBE7" opacity="1.000000" stroke="none" 
	d="
M653.590698,146.319412 
	C654.035339,155.956314 654.016479,165.498779 653.999329,175.508179 
	C629.892700,175.975082 605.784241,175.975082 581.101990,175.975082 
	C580.379578,166.175720 579.665161,156.484802 578.908875,146.224991 
	C603.950256,146.224991 628.538757,146.224991 653.590698,146.319412 
z"/>
<path fill="#29A8E0" opacity="1.000000" stroke="none" 
	d="
M400.032990,146.780991 
	C400.032074,138.287399 400.131134,129.792023 399.977539,121.301186 
	C399.921600,118.208694 400.668976,116.849609 404.114105,116.862411 
	C434.091309,116.973831 464.069305,116.976532 494.046509,116.861443 
	C497.592163,116.847839 498.295868,118.359993 498.041382,121.379723 
	C497.234161,130.959686 496.601746,140.554901 495.737152,150.129379 
	C494.948273,158.865326 493.875153,167.575317 493.052002,176.308533 
	C491.699921,190.652908 490.418671,205.004181 489.164124,219.357483 
	C488.067657,231.902435 487.105042,244.459183 485.980927,257.001556 
	C484.783722,270.359680 483.435852,283.704224 482.212311,297.060059 
	C481.426270,305.640472 480.875946,314.245483 479.895538,322.802307 
	C479.723755,324.301331 478.198364,326.506500 476.870941,326.884247 
	C452.457336,333.831085 427.979523,340.552399 403.510071,347.302612 
	C402.599365,347.553833 401.636230,347.615021 400.011627,347.874207 
	C400.011627,337.734406 400.011627,327.955963 399.998352,317.585510 
	C399.985077,316.993500 399.969635,316.708496 400.349884,316.785217 
	C419.980988,311.570435 439.223236,306.247223 458.493530,301.027588 
	C460.894012,300.377380 462.026825,299.388977 462.225525,296.701080 
	C462.998413,286.246155 464.090729,275.815247 465.004089,265.370178 
	C466.917480,243.488663 468.818359,221.606003 470.675568,199.719681 
	C472.138733,182.476944 473.528748,165.227997 474.948364,147.718719 
	C474.637177,147.355438 474.328949,147.255234 473.554504,147.092255 
	C466.288300,147.018723 459.488098,146.973221 452.688232,147.003983 
	C435.116241,147.083450 417.544373,147.196579 399.976990,147.166199 
	C399.981506,147.036133 400.032990,146.780991 400.032990,146.780991 
z"/>
<path fill="#E8E9EA" opacity="1.000000" stroke="none" 
	d="
M400.008728,317.134216 
	C380.474884,311.825928 360.937927,306.300659 341.339203,301.004089 
	C338.132874,300.137604 336.793304,298.854645 336.532562,295.404266 
	C335.442810,280.985016 334.012665,266.591522 332.667938,251.753784 
	C343.153259,251.753784 353.186035,251.753784 363.664490,251.753784 
	C364.311066,258.576233 365.132690,265.307556 365.507202,272.063660 
	C365.679413,275.170685 367.069855,276.297302 369.835449,276.998840 
	C379.673401,279.494354 389.461700,282.185730 399.628510,284.882843 
	C399.988220,284.962738 399.977692,285.223969 399.988861,285.677216 
	C399.989899,296.323151 399.979767,306.515808 399.969666,316.708496 
	C399.969635,316.708496 399.985077,316.993500 400.008728,317.134216 
z"/>
<path fill="#E8EAEB" opacity="1.000000" stroke="none" 
	d="
M400.022980,177.088562 
	C376.063141,177.088562 352.103302,177.088562 327.782867,177.088562 
	C326.861847,166.891541 325.996338,157.309479 325.061188,146.955994 
	C349.918884,146.955994 374.512085,146.955994 399.569153,146.868500 
	C400.032990,146.780991 399.981506,147.036133 399.991638,147.614471 
	C399.992889,157.667633 399.984039,167.142441 399.972778,176.736542 
	C399.970398,176.855820 400.022980,177.088562 400.022980,177.088562 
z"/>
<path fill="#E4E8EA" opacity="1.000000" stroke="none" 
	d="
M400.008026,238.022278 
	C380.020020,237.946442 360.032013,237.869843 340.044006,237.795837 
	C337.888000,237.787857 335.731903,237.794785 332.798157,237.794785 
	C331.874969,227.786072 330.968536,217.958786 329.979889,207.240585 
	C353.268219,207.240585 376.169861,207.240585 399.525604,207.328339 
	C399.979675,207.416077 399.962830,207.775253 399.976379,208.187988 
	C399.980896,218.191010 399.971863,227.781296 399.973267,237.534332 
	C399.983734,237.697052 400.008026,238.022278 400.008026,238.022278 
z"/>
<path fill="#2AA8E0" opacity="1.000000" stroke="none" 
	d="
M400.009705,284.833801 
	C400.028320,269.455353 400.025482,254.205841 400.015320,238.489304 
	C400.008026,238.022278 399.983734,237.697052 400.423279,237.684341 
	C412.785858,237.671631 424.708862,237.671631 437.004639,237.671631 
	C435.828430,250.317535 434.836975,262.070374 433.491333,273.782440 
	C433.354279,274.975342 431.249176,276.466980 429.785828,276.897949 
	C419.890656,279.812042 409.922333,282.477844 399.977692,285.223969 
	C399.977692,285.223969 399.988220,284.962738 400.009705,284.833801 
z"/>
<path fill="#29A8E0" opacity="1.000000" stroke="none" 
	d="
M399.986511,207.236420 
	C400.007050,197.375793 400.020721,187.694824 400.028687,177.551208 
	C400.022980,177.088562 399.970398,176.855820 400.432007,176.837738 
	C414.811096,176.819656 428.728546,176.819656 442.855804,176.819656 
	C441.752838,187.375046 440.737549,197.091644 439.673859,207.271225 
	C436.965027,207.271225 434.671143,207.242737 432.378204,207.276077 
	C421.572937,207.433182 410.767944,207.607254 399.962830,207.775253 
	C399.962830,207.775253 399.979675,207.416077 399.986511,207.236420 
z"/>
<path fill="#F1662B" opacity="1.000000" stroke="none" 
	d="
M146.983307,146.486603 
	C146.987289,137.991379 147.039627,129.495743 146.965515,121.001213 
	C146.943588,118.485611 147.345810,116.942932 150.450485,116.951866 
	C181.265976,117.040611 212.081802,117.022217 242.897507,117.054558 
	C243.362411,117.055046 243.827042,117.315239 244.596725,117.545410 
	C244.379272,121.765739 244.286896,126.001602 243.921112,130.213699 
	C242.662308,144.709229 241.366074,159.202057 239.974457,173.685379 
	C238.409439,189.973450 236.660965,206.243973 235.118912,222.534119 
	C234.276825,231.429947 233.783981,240.358459 232.977921,249.258133 
	C231.770264,262.591675 230.372879,275.908020 229.157715,289.240875 
	C228.346619,298.140198 227.437668,307.044403 227.072006,315.966858 
	C226.668930,325.802246 226.963455,325.974121 217.676697,328.595825 
	C195.826202,334.764496 173.929916,340.771118 152.043808,346.813110 
	C150.631439,347.203003 149.148270,347.336487 146.983032,347.713898 
	C146.983032,337.656433 146.983032,327.895447 147.326050,317.508179 
	C165.616226,311.893585 183.496460,306.640656 201.550262,302.073822 
	C207.156372,300.655670 208.660263,297.908173 209.046600,292.605042 
	C210.352188,274.683533 212.160675,256.798950 213.737015,238.896744 
	C214.636444,228.682281 215.458420,218.461014 216.364914,207.650879 
	C206.938110,207.650879 198.158691,207.696548 189.379913,207.640472 
	C175.242920,207.550186 161.106339,207.392761 146.979065,206.846436 
	C146.987549,196.647507 146.986557,186.865845 147.448959,177.002014 
	C171.495209,176.919876 195.078079,176.919876 219.152771,176.919876 
	C220.069016,166.837158 220.950211,157.140045 221.894196,146.751923 
	C219.667984,146.751923 217.727905,146.758316 215.787872,146.750961 
	C192.853012,146.664032 169.918167,146.575027 146.983307,146.486603 
z"/>
<path fill="#EBEAE9" opacity="1.000000" stroke="none" 
	d="
M146.043045,237.502777 
	C124.743950,237.595642 103.444725,237.728729 82.146133,237.661987 
	C81.086693,237.658676 79.194809,235.997803 79.098122,234.975616 
	C76.342758,205.844040 73.768150,176.695389 71.096779,146.795593 
	C95.947754,146.795593 120.511955,146.795593 145.539246,147.358459 
	C146.012039,157.509415 146.021759,167.097519 145.567566,176.770096 
	C131.519989,176.854568 117.936310,176.854568 104.122635,176.854568 
	C105.126457,187.529297 106.054199,197.394989 107.039131,207.868820 
	C120.392509,207.868820 133.185272,207.868820 145.983765,208.345688 
	C146.007339,218.382629 146.025192,227.942703 146.043045,237.502777 
z"/>
<path fill="#FFFEFE" opacity="1.000000" stroke="none" 
	d="
M146.278778,237.633820 
	C146.025192,227.942703 146.007339,218.382629 146.237701,208.204346 
	C146.647141,207.478653 146.808365,207.371170 146.969589,207.263687 
	C161.106339,207.392761 175.242920,207.550186 189.379913,207.640472 
	C198.158691,207.696548 206.938110,207.650879 216.364914,207.650879 
	C215.458420,218.461014 214.636444,228.682281 213.737015,238.896744 
	C212.160675,256.798950 210.352188,274.683533 209.046600,292.605042 
	C208.660263,297.908173 207.156372,300.655670 201.550262,302.073822 
	C183.496460,306.640656 165.616226,311.893585 147.324860,317.053650 
	C146.816757,317.160767 146.652893,317.096130 146.257904,316.445190 
	C146.046906,305.846558 146.067047,295.834259 146.087189,285.821991 
	C146.255859,285.727509 146.424545,285.633026 147.208252,285.343323 
	C157.460556,282.588409 167.112381,280.080811 176.717224,277.404694 
	C177.949493,277.061371 179.809357,275.934937 179.907181,275.014862 
	C181.202713,262.830719 182.234802,250.618622 183.367874,238.022232 
	C170.826660,238.022232 158.907578,238.022232 146.988495,238.022232 
	C146.830490,237.936432 146.672501,237.850647 146.278778,237.633820 
z"/>
<path fill="#EBEAE9" opacity="1.000000" stroke="none" 
	d="
M145.732162,285.584747 
	C146.067047,295.834259 146.046906,305.846558 146.030243,316.311127 
	C126.494019,311.435150 106.947403,306.131805 87.433762,300.709778 
	C86.385323,300.418518 84.910255,299.201447 84.818504,298.295349 
	C83.301003,283.307159 81.973518,268.299744 80.571144,252.942444 
	C91.009323,252.942444 100.719894,252.942444 110.847054,252.942444 
	C111.501213,259.690399 112.353905,266.253632 112.681877,272.842926 
	C112.838028,275.980225 114.215256,277.077698 116.959763,277.778320 
	C126.457359,280.202911 135.908386,282.809937 145.732162,285.584747 
z"/>
<path fill="#FFFFFE" opacity="1.000000" stroke="none" 
	d="
M146.031464,176.685623 
	C146.021759,167.097519 146.012039,157.509415 146.000229,147.451309 
	C146.162537,146.899368 146.326950,146.817429 146.737335,146.611038 
	C169.918167,146.575027 192.853012,146.664032 215.787872,146.750961 
	C217.727905,146.758316 219.667984,146.751923 221.894196,146.751923 
	C220.950211,157.140045 220.069016,166.837158 219.152771,176.919876 
	C195.078079,176.919876 171.495209,176.919876 147.210419,176.902496 
	C146.349503,176.818634 146.190491,176.752136 146.031464,176.685623 
z"/>
<path fill="#F1662B" opacity="1.000000" stroke="none" 
	d="
M146.989532,238.489349 
	C158.907578,238.022232 170.826660,238.022232 183.367874,238.022232 
	C182.234802,250.618622 181.202713,262.830719 179.907181,275.014862 
	C179.809357,275.934937 177.949493,277.061371 176.717224,277.404694 
	C167.112381,280.080811 157.460556,282.588409 147.415298,285.140259 
	C147.001740,269.740448 146.996155,254.348465 146.989532,238.489349 
z"/>
<path fill="#FEFEFF" opacity="1.000000" stroke="none" 
	d="
M399.976379,208.187988 
	C410.767944,207.607254 421.572937,207.433182 432.378204,207.276077 
	C434.671143,207.242737 436.965027,207.271225 439.673859,207.271225 
	C440.737549,197.091644 441.752838,187.375046 442.855804,176.819656 
	C428.728546,176.819656 414.811096,176.819656 400.434387,176.718460 
	C399.984039,167.142441 399.992889,157.667633 399.987122,147.744537 
	C417.544373,147.196579 435.116241,147.083450 452.688232,147.003983 
	C459.488098,146.973221 466.288300,147.018723 473.661560,147.278229 
	C474.426025,147.753540 474.664886,147.905151 474.951294,147.981812 
	C473.528748,165.227997 472.138733,182.476944 470.675568,199.719681 
	C468.818359,221.606003 466.917480,243.488663 465.004089,265.370178 
	C464.090729,275.815247 462.998413,286.246155 462.225525,296.701080 
	C462.026825,299.388977 460.894012,300.377380 458.493530,301.027588 
	C439.223236,306.247223 419.980988,311.570435 400.349915,316.785217 
	C399.979767,306.515808 399.989899,296.323151 399.988861,285.677216 
	C409.922333,282.477844 419.890656,279.812042 429.785828,276.897949 
	C431.249176,276.466980 433.354279,274.975342 433.491333,273.782440 
	C434.836975,262.070374 435.828430,250.317535 437.004639,237.671631 
	C424.708862,237.671631 412.785858,237.671631 400.412842,237.521606 
	C399.971863,227.781296 399.980896,218.191010 399.976379,208.187988 
z"/>
<path fill="#E8EAEB" opacity="1.000000" stroke="none" 
	d="
M474.948364,147.718719 
	C474.664886,147.905151 474.426025,147.753540 474.127716,147.341003 
	C474.328949,147.255234 474.637177,147.355438 474.948364,147.718719 
z"/>
<path fill="#E44E26" opacity="1.000000" stroke="none" 
	d="
M145.567566,176.770096 
	C146.190491,176.752136 146.349503,176.818634 146.747040,176.984650 
	C146.986557,186.865845 146.987549,196.647507 146.979065,206.846436 
	C146.808365,207.371170 146.647141,207.478653 146.231979,207.727478 
	C133.185272,207.868820 120.392509,207.868820 107.039131,207.868820 
	C106.054199,197.394989 105.126457,187.529297 104.122635,176.854568 
	C117.936310,176.854568 131.519989,176.854568 145.567566,176.770096 
z"/>
</svg>